<svg width="18" height="18" viewBox="0 0 18 18" fill="none" xmlns="http://www.w3.org/2000/svg">
<path d="M12 9.675V12.825C12 15.45 10.95 16.5 8.325 16.5H5.175C2.55 16.5 1.5 15.45 1.5 12.825V9.675C1.5 7.05 2.55 6 5.175 6H8.325C10.95 6 12 7.05 12 9.675Z" fill="white"/>
<path d="M12.825 1.5H9.67501C7.46258 1.5 6.37422 2.25121 6.08643 4.05369C5.99862 4.60363 6.4625 5.0625 7.01941 5.0625H8.32501C11.475 5.0625 12.9375 6.525 12.9375 9.675V10.9806C12.9375 11.5375 13.3964 12.0014 13.9463 11.9136C15.7488 11.6258 16.5 10.5374 16.5 8.325V5.175C16.5 2.55 15.45 1.5 12.825 1.5Z" fill="white"/>
</svg>
